<svg width="19" height="19" viewBox="0 0 19 19" fill="none" xmlns="http://www.w3.org/2000/svg">
<path d="M13.3146 8.28242C12.9921 8.28242 12.7371 8.01992 12.7371 7.70492C12.7371 7.42742 12.4596 6.84992 11.9946 6.34742C11.5371 5.85992 11.0346 5.57492 10.6146 5.57492C10.2921 5.57492 10.0371 5.31242 10.0371 4.99742C10.0371 4.68242 10.2996 4.41992 10.6146 4.41992C11.3646 4.41992 12.1521 4.82492 12.8421 5.55242C13.4871 6.23492 13.8996 7.08242 13.8996 7.69742C13.8996 8.01992 13.6371 8.28242 13.3146 8.28242Z" fill="#DD2B1C"/>
<path d="M16.0224 8.28223C15.6999 8.28223 15.4449 8.01973 15.4449 7.70473C15.4449 5.04223 13.2774 2.88223 10.6224 2.88223C10.2999 2.88223 10.0449 2.61973 10.0449 2.30473C10.0449 1.98973 10.2999 1.71973 10.6149 1.71973C13.9149 1.71973 16.5999 4.40473 16.5999 7.70473C16.5999 8.01973 16.3374 8.28223 16.0224 8.28223Z" fill="#DD2B1C"/>
<path d="M8.38711 11.4322L6.99961 12.8197C6.70711 13.1122 6.24211 13.1122 5.94211 12.8272C5.85961 12.7447 5.77711 12.6697 5.69461 12.5872C4.92211 11.8072 4.22461 10.9897 3.60211 10.1347C2.98711 9.27973 2.49211 8.42473 2.13211 7.57723C1.77961 6.72223 1.59961 5.90473 1.59961 5.12473C1.59961 4.61473 1.68961 4.12723 1.86961 3.67723C2.04961 3.21973 2.33461 2.79973 2.73211 2.42473C3.21211 1.95223 3.73711 1.71973 4.29211 1.71973C4.50211 1.71973 4.71211 1.76473 4.89961 1.85473C5.09461 1.94473 5.26711 2.07973 5.40211 2.27473L7.14211 4.72723C7.27711 4.91473 7.37461 5.08723 7.44211 5.25223C7.50961 5.40973 7.54711 5.56723 7.54711 5.70973C7.54711 5.88973 7.49461 6.06973 7.38961 6.24223C7.29211 6.41473 7.14961 6.59473 6.96961 6.77473L6.39961 7.36723C6.31711 7.44973 6.27961 7.54723 6.27961 7.66723C6.27961 7.72723 6.28711 7.77973 6.30211 7.83973C6.32461 7.89973 6.34711 7.94473 6.36211 7.98973C6.49711 8.23723 6.72961 8.55973 7.05961 8.94973C7.39711 9.33973 7.75711 9.73723 8.14711 10.1347C8.22211 10.2097 8.30461 10.2847 8.37961 10.3597C8.67961 10.6522 8.68711 11.1322 8.38711 11.4322Z" fill="#DD2B1C"/>
<path d="M12.5791 11.25C12.6482 11.25 12.7338 11.2644 12.8467 11.3105C12.9686 11.3604 13.1085 11.4376 13.2754 11.5508L15.7539 13.3105L15.7588 13.3135C15.8858 13.4014 15.9546 13.488 15.9951 13.5762C16.0497 13.7147 16.0762 13.8369 16.0762 13.9678C16.0761 14.1189 16.0484 14.2792 15.9922 14.4365C15.9701 14.4953 15.9572 14.5299 15.9414 14.5615L15.9365 14.5713C15.8289 14.7991 15.6912 15.0125 15.5088 15.2139C15.1993 15.5549 14.8692 15.7934 14.5078 15.9502L14.4375 15.9795C14.0552 16.135 13.6394 16.2197 13.1865 16.2197C12.5007 16.2197 11.7497 16.0589 10.9375 15.7129C10.2162 15.4055 9.4904 15.0026 8.76562 14.5029L8.45605 14.2832C8.31693 14.1797 8.18056 14.0789 8.04785 13.9775L9.80957 12.2148C9.90213 12.2736 9.99021 12.3261 10.0742 12.3701L10.0967 12.3818L10.1211 12.3916C10.1266 12.3938 10.1365 12.3984 10.1602 12.4092C10.1808 12.4187 10.2111 12.4331 10.2441 12.4473L10.2549 12.4512L10.2656 12.4561C10.3987 12.506 10.5227 12.5176 10.6289 12.5176C10.8947 12.5176 11.1164 12.4156 11.2871 12.2461L11.8574 11.6836L11.8604 11.6807C12.0274 11.5137 12.1663 11.4086 12.2773 11.3506L12.3066 11.335C12.4106 11.2717 12.4942 11.25 12.5791 11.25Z" fill="#DD2B1C" stroke="#DD2B1C"/>
</svg>
