<svg width="19" height="19" viewBox="0 0 19 19" fill="none" xmlns="http://www.w3.org/2000/svg">
<path fill-rule="evenodd" clip-rule="evenodd" d="M9.09961 1.71973C7.61625 1.71973 6.1662 2.15959 4.93284 2.9837C3.69947 3.80782 2.73817 4.97916 2.17052 6.3496C1.60286 7.72005 1.45433 9.22805 1.74372 10.6829C2.03311 12.1378 2.74742 13.4741 3.79631 14.523C4.84521 15.5719 6.18158 16.2862 7.63644 16.5756C9.09129 16.865 10.5993 16.7165 11.9697 16.1488C13.3402 15.5812 14.5115 14.6199 15.3356 13.3865C16.1597 12.1531 16.5996 10.7031 16.5996 9.21973C16.5996 8.23481 16.4056 7.25954 16.0287 6.3496C15.6518 5.43966 15.0994 4.61287 14.4029 3.91643C13.7065 3.21999 12.8797 2.66754 11.9697 2.29063C11.0598 1.91372 10.0845 1.71973 9.09961 1.71973ZM11.7471 11.8672C11.695 11.9196 11.633 11.9611 11.5648 11.9894C11.4966 12.0178 11.4235 12.0324 11.3496 12.0324C11.2757 12.0324 11.2026 12.0178 11.1344 11.9894C11.0662 11.9611 11.0042 11.9196 10.9521 11.8672L8.70211 9.61723C8.64977 9.56512 8.60824 9.50317 8.57992 9.43495C8.5516 9.36673 8.53706 9.29359 8.53711 9.21973V5.46973C8.53711 5.32054 8.59638 5.17747 8.70187 5.07198C8.80735 4.96649 8.95043 4.90723 9.09961 4.90723C9.2488 4.90723 9.39187 4.96649 9.49736 5.07198C9.60285 5.17747 9.66211 5.32054 9.66211 5.46973V8.98648L11.7471 11.0722C11.7994 11.1244 11.8408 11.1864 11.8691 11.2546C11.8974 11.3228 11.9119 11.3959 11.9119 11.4697C11.9119 11.5436 11.8974 11.6167 11.8691 11.6849C11.8408 11.7531 11.7994 11.8151 11.7471 11.8672Z" fill="#DD2B1C"/>
</svg>
