<svg width="40" height="41" viewBox="0 0 40 41" fill="none" xmlns="http://www.w3.org/2000/svg">
<rect y="0.666992" width="40" height="40" rx="20" fill="#DD2B1C" fill-opacity="0.2"/>
<rect x="5.71387" y="6.38086" width="28.5714" height="28.5714" rx="14.2857" fill="white"/>
<path d="M19.4689 7.29684C26.8516 7.00403 33.0741 12.7506 33.3684 20.1331C33.6628 27.5157 27.9174 33.7395 20.5349 34.0353C13.1503 34.3311 6.92436 28.5837 6.62996 21.1991C6.33556 13.8145 12.0842 7.58976 19.4689 7.29684ZM20.5029 33.4961C27.5925 33.2177 33.1123 27.2421 32.8289 20.1528C32.5454 13.0635 26.5661 7.54775 19.477 7.83607C12.3947 8.1241 6.88543 14.0963 7.1686 21.1788C7.45178 28.2612 13.4203 33.7744 20.5029 33.4961Z" fill="#DD2B1C"/>
<path d="M10.7303 12.8541C10.821 12.8456 10.9094 12.8387 10.9991 12.8587C11.3225 12.9309 11.667 13.1124 11.9732 13.2402C12.531 13.473 13.0936 13.6994 13.6462 13.9442C13.7906 14.0081 13.9816 14.0937 14.0871 14.2154C14.2958 14.4565 14.6384 15.5978 14.7762 15.9596L22.6219 15.9593L25.1577 15.9566C25.6214 15.9561 26.1002 15.9323 26.5625 15.969C26.711 15.9808 26.8296 15.9993 26.9484 16.0971C27.0495 16.1802 27.1603 16.328 27.1716 16.4605C27.1832 16.5967 27.1468 16.7483 27.1094 16.8782C26.9462 17.4437 24.8942 23.5397 24.7539 23.6844C24.6569 23.7844 24.3676 23.8174 24.2333 23.8288C23.4623 23.8939 22.5834 23.8393 21.8011 23.8392L16.856 23.8343L16.403 24.9354L23.1582 24.9321C23.6497 24.9356 24.5007 24.7915 24.8963 25.1209C25.0083 25.2141 25.0824 25.3426 25.0876 25.4898C25.0934 25.6533 25.0202 25.8133 24.9057 25.9281C24.689 26.1454 24.4559 26.1405 24.1688 26.1386C24.2377 26.2513 24.304 26.3735 24.3484 26.498C24.5009 26.9127 24.4787 27.3715 24.287 27.7696C24.0941 28.1684 23.758 28.4771 23.3355 28.6164C22.9123 28.7569 22.4502 28.7199 22.0547 28.514C21.6599 28.3102 21.3649 27.9547 21.2371 27.5292C21.0899 27.0287 21.1994 26.5872 21.4464 26.1434L18.3477 26.1402C18.422 26.2694 18.4923 26.4047 18.5383 26.5468C18.6742 26.9661 18.6489 27.4145 18.4449 27.8077C18.2401 28.2016 17.8859 28.497 17.4616 28.6278C17.0497 28.7549 16.5781 28.715 16.1982 28.509C15.8108 28.299 15.5306 27.9262 15.407 27.506C15.2638 27.019 15.3724 26.5892 15.6114 26.1555C15.4389 26.1411 15.2853 26.1234 15.1367 26.0247C15.0104 25.9408 14.9263 25.7865 14.9047 25.6377C14.8635 25.3532 15.8128 23.1059 16.0148 22.8217C15.1099 20.2181 14.0832 17.6539 13.1561 15.0576L11.5003 14.3622C11.2072 14.2389 10.8788 14.1299 10.6085 13.9626C10.4957 13.8928 10.3958 13.8077 10.3361 13.6864C10.2699 13.5519 10.2721 13.4081 10.3205 13.2684C10.3968 13.0482 10.5331 12.9525 10.7303 12.8541ZM15.5692 18.126L18.2546 18.1258L18.2518 17.1707L15.2119 17.1686C15.335 17.4863 15.454 17.8055 15.5692 18.126ZM19.4512 20.5192C19.843 20.5192 21.4235 20.5697 21.6767 20.5089L21.6859 20.482L21.7038 20.4847C21.7053 20.0992 21.7013 19.7128 21.7087 19.3273H19.4539L19.4512 20.5192ZM22.9155 18.1234L25.4187 18.1243L25.5163 17.8346L25.734 17.1683L22.9153 17.1613L22.9155 18.1234ZM19.4559 22.632L21.6982 22.6291C21.7099 22.3272 21.7073 22.025 21.707 21.7229L19.4548 21.7212L19.4559 22.632ZM22.9151 21.7228L22.9142 22.6321C23.2274 22.6367 23.5636 22.6684 23.8723 22.6148C23.9023 22.5763 23.9212 22.5505 23.9329 22.5027L24.1974 21.7242L22.9151 21.7228ZM16.454 20.5178C17.0527 20.5178 17.6527 20.5262 18.2512 20.5167L18.2497 19.3272L16.0082 19.3271L16.454 20.5178ZM18.2499 21.7238C17.7977 21.721 17.3455 21.7205 16.8933 21.7223C17.0058 22.0248 17.1243 22.3263 17.2282 22.6317L18.2342 22.6277C18.2966 22.3596 18.2488 22.0026 18.2499 21.7238ZM19.4534 17.1593L19.4535 18.1245L21.6749 18.1237L21.7034 18.0944L21.7011 18.0802L21.7068 17.1677C20.9559 17.1645 20.204 17.172 19.4534 17.1593ZM25.0064 19.3281L22.9158 19.3278L22.9158 20.521L24.6056 20.5182L24.6921 20.2575L25.0064 19.3281Z" fill="#DD2B1C"/>
<path d="M16.9299 26.3957C17.2934 26.3669 17.6129 26.6349 17.6477 26.9979C17.6826 27.361 17.4199 27.6849 17.0575 27.7257C16.8177 27.7528 16.5819 27.6484 16.4407 27.4526C16.2995 27.2568 16.2749 27.0002 16.3762 26.7811C16.4776 26.5621 16.6893 26.4147 16.9299 26.3957Z" fill="white"/>
<path d="M22.7597 26.3944C23.1245 26.3676 23.443 26.6392 23.4742 27.0036C23.5055 27.3681 23.2377 27.6899 22.8737 27.7255C22.6343 27.7489 22.4007 27.6418 22.2623 27.445C22.1239 27.2482 22.1019 26.9922 22.2049 26.7748C22.3078 26.5573 22.5198 26.412 22.7597 26.3944Z" fill="white"/>
</svg>
